<svg xmlns="http://www.w3.org/2000/svg" height="583.809pt" version="1.1" viewBox="1 1 583.809 583.809" width="583.809pt">
<g id="surface1">
<path d="M 476.933594 282.265625 L 350.398438 282.265625 L 350.398438 204.402344 C 350.398438 193.648438 341.683594 184.933594 330.933594 184.933594 L 155.734375 184.933594 C 144.980469 184.933594 136.265625 193.648438 136.265625 204.402344 L 136.265625 282.265625 L 9.734375 282.265625 L 9.734375 574.265625 L 476.933594 574.265625 Z M 262.800781 214.132812 L 321.199219 214.132812 L 321.199219 253.066406 L 262.800781 253.066406 Z M 243.332031 545.066406 C 178.828125 545.066406 126.53125 492.773438 126.53125 428.265625 C 126.53125 363.757812 178.828125 311.464844 243.332031 311.464844 C 307.839844 311.464844 360.132812 363.757812 360.132812 428.265625 C 360.132812 492.773438 307.839844 545.066406 243.332031 545.066406 Z M 243.332031 545.066406 " style=" stroke:none;fill-rule:nonzero;fill:rgb(0%,84.313725%,87.45098%);fill-opacity:1;" />
<path d="M 360.132812 428.265625 C 360.132812 492.773438 307.839844 545.066406 243.332031 545.066406 C 178.828125 545.066406 126.53125 492.773438 126.53125 428.265625 C 126.53125 363.757812 178.828125 311.464844 243.332031 311.464844 C 307.839844 311.464844 360.132812 363.757812 360.132812 428.265625 Z M 360.132812 428.265625 " style=" stroke:none;fill-rule:nonzero;fill:rgb(100%,59.607843%,6.666667%);fill-opacity:1;" />
<path d="M 262.800781 214.132812 L 321.199219 214.132812 L 321.199219 253.066406 L 262.800781 253.066406 Z M 262.800781 214.132812 " style=" stroke:none;fill-rule:nonzero;fill:rgb(100%,92.156863%,60%);fill-opacity:1;" />
<path d="M 476.933594 272.53125 L 360.132812 272.53125 L 360.132812 204.398438 C 360.132812 188.273438 347.058594 175.199219 330.933594 175.199219 L 155.734375 175.199219 C 139.605469 175.199219 126.535156 188.273438 126.535156 204.398438 L 126.535156 272.53125 L 9.734375 272.53125 C 4.355469 272.53125 0 276.890625 0 282.265625 L 0 574.265625 C 0 579.640625 4.355469 584 9.734375 584 L 476.933594 584 C 482.308594 584 486.667969 579.640625 486.667969 574.265625 L 486.667969 282.265625 C 486.667969 276.890625 482.308594 272.53125 476.933594 272.53125 Z M 467.199219 564.53125 L 19.464844 564.53125 L 19.464844 292 L 136.265625 292 C 141.640625 292 146 287.644531 146 282.265625 L 146 204.402344 C 146 199.023438 150.355469 194.667969 155.734375 194.667969 L 330.933594 194.667969 C 336.308594 194.667969 340.664062 199.023438 340.664062 204.402344 L 340.664062 282.265625 C 340.664062 287.644531 345.023438 292 350.398438 292 L 467.199219 292 Z M 467.199219 564.53125 " style=" stroke:none;fill-rule:nonzero;fill:rgb(13.72549%,12.156863%,12.54902%);fill-opacity:1;" />
<path d="M 243.332031 301.734375 C 173.449219 301.734375 116.800781 358.382812 116.800781 428.265625 C 116.800781 498.148438 173.449219 554.800781 243.332031 554.800781 C 313.214844 554.800781 369.867188 498.148438 369.867188 428.265625 C 369.785156 358.417969 313.183594 301.8125 243.332031 301.734375 Z M 243.332031 535.332031 C 184.203125 535.332031 136.265625 487.398438 136.265625 428.265625 C 136.265625 369.136719 184.203125 321.199219 243.332031 321.199219 C 302.464844 321.199219 350.398438 369.136719 350.398438 428.265625 C 350.328125 487.367188 302.433594 535.261719 243.332031 535.332031 Z M 243.332031 535.332031 " style=" stroke:none;fill-rule:nonzero;fill:rgb(13.72549%,12.156863%,12.54902%);fill-opacity:1;" />
<path d="M 262.800781 262.800781 L 321.199219 262.800781 C 326.574219 262.800781 330.933594 258.441406 330.933594 253.066406 L 330.933594 214.132812 C 330.933594 208.757812 326.574219 204.398438 321.199219 204.398438 L 262.800781 204.398438 C 257.421875 204.398438 253.066406 208.757812 253.066406 214.132812 L 253.066406 253.066406 C 253.066406 258.441406 257.421875 262.800781 262.800781 262.800781 Z M 272.53125 223.867188 L 311.464844 223.867188 L 311.464844 243.332031 L 272.53125 243.332031 Z M 272.53125 223.867188 " style=" stroke:none;fill-rule:nonzero;fill:rgb(13.72549%,12.156863%,12.54902%);fill-opacity:1;" />
<path d="M 496.398438 506.132812 L 515.867188 506.132812 L 515.867188 525.597656 L 496.398438 525.597656 Z M 496.398438 506.132812 " style=" stroke:none;fill-rule:nonzero;fill:rgb(13.72549%,12.156863%,12.54902%);fill-opacity:1;" />
<path d="M 525.601562 506.132812 L 545.066406 506.132812 L 545.066406 525.597656 L 525.601562 525.597656 Z M 525.601562 506.132812 " style=" stroke:none;fill-rule:nonzero;fill:rgb(13.72549%,12.156863%,12.54902%);fill-opacity:1;" />
<path d="M 564.53125 506.132812 L 554.800781 506.132812 L 554.800781 525.597656 L 574.265625 525.597656 C 579.640625 525.597656 584 521.242188 584 515.867188 L 584 496.398438 L 564.53125 496.398438 Z M 564.53125 506.132812 " style=" stroke:none;fill-rule:nonzero;fill:rgb(13.72549%,12.156863%,12.54902%);fill-opacity:1;" />
<path d="M 564.53125 438 L 584 438 L 584 476.933594 L 564.53125 476.933594 Z M 564.53125 438 " style=" stroke:none;fill-rule:nonzero;fill:rgb(13.72549%,12.156863%,12.54902%);fill-opacity:1;" />
<path d="M 564.53125 107.066406 L 584 107.066406 L 584 146 L 564.53125 146 Z M 564.53125 107.066406 " style=" stroke:none;fill-rule:nonzero;fill:rgb(13.72549%,12.156863%,12.54902%);fill-opacity:1;" />
<path d="M 564.53125 155.734375 L 584 155.734375 L 584 194.667969 L 564.53125 194.667969 Z M 564.53125 155.734375 " style=" stroke:none;fill-rule:nonzero;fill:rgb(13.72549%,12.156863%,12.54902%);fill-opacity:1;" />
<path d="M 564.53125 214.132812 L 584 214.132812 L 584 253.066406 L 564.53125 253.066406 Z M 564.53125 214.132812 " style=" stroke:none;fill-rule:nonzero;fill:rgb(13.72549%,12.156863%,12.54902%);fill-opacity:1;" />
<path d="M 564.53125 48.667969 L 584 48.667969 L 584 87.601562 L 564.53125 87.601562 Z M 564.53125 48.667969 " style=" stroke:none;fill-rule:nonzero;fill:rgb(13.72549%,12.156863%,12.54902%);fill-opacity:1;" />
<path d="M 564.53125 330.933594 L 584 330.933594 L 584 369.867188 L 564.53125 369.867188 Z M 564.53125 330.933594 " style=" stroke:none;fill-rule:nonzero;fill:rgb(13.72549%,12.156863%,12.54902%);fill-opacity:1;" />
<path d="M 564.53125 272.53125 L 584 272.53125 L 584 311.464844 L 564.53125 311.464844 Z M 564.53125 272.53125 " style=" stroke:none;fill-rule:nonzero;fill:rgb(13.72549%,12.156863%,12.54902%);fill-opacity:1;" />
<path d="M 564.53125 379.597656 L 584 379.597656 L 584 418.53125 L 564.53125 418.53125 Z M 564.53125 379.597656 " style=" stroke:none;fill-rule:nonzero;fill:rgb(13.72549%,12.156863%,12.54902%);fill-opacity:1;" />
<path d="M 574.265625 0 L 554.800781 0 L 554.800781 19.464844 L 564.53125 19.464844 L 564.53125 29.199219 L 584 29.199219 L 584 9.734375 C 584 4.355469 579.640625 0 574.265625 0 Z M 574.265625 0 " style=" stroke:none;fill-rule:nonzero;fill:rgb(13.72549%,12.156863%,12.54902%);fill-opacity:1;" />
<path d="M 330.933594 0 L 369.867188 0 L 369.867188 19.464844 L 330.933594 19.464844 Z M 330.933594 0 " style=" stroke:none;fill-rule:nonzero;fill:rgb(13.72549%,12.156863%,12.54902%);fill-opacity:1;" />
<path d="M 272.53125 0 L 311.464844 0 L 311.464844 19.464844 L 272.53125 19.464844 Z M 272.53125 0 " style=" stroke:none;fill-rule:nonzero;fill:rgb(13.72549%,12.156863%,12.54902%);fill-opacity:1;" />
<path d="M 165.46875 0 L 204.402344 0 L 204.402344 19.464844 L 165.46875 19.464844 Z M 165.46875 0 " style=" stroke:none;fill-rule:nonzero;fill:rgb(13.72549%,12.156863%,12.54902%);fill-opacity:1;" />
<path d="M 389.332031 0 L 428.265625 0 L 428.265625 19.464844 L 389.332031 19.464844 Z M 389.332031 0 " style=" stroke:none;fill-rule:nonzero;fill:rgb(13.72549%,12.156863%,12.54902%);fill-opacity:1;" />
<path d="M 496.398438 0 L 535.332031 0 L 535.332031 19.464844 L 496.398438 19.464844 Z M 496.398438 0 " style=" stroke:none;fill-rule:nonzero;fill:rgb(13.72549%,12.156863%,12.54902%);fill-opacity:1;" />
<path d="M 438 0 L 476.933594 0 L 476.933594 19.464844 L 438 19.464844 Z M 438 0 " style=" stroke:none;fill-rule:nonzero;fill:rgb(13.72549%,12.156863%,12.54902%);fill-opacity:1;" />
<path d="M 214.132812 0 L 253.066406 0 L 253.066406 19.464844 L 214.132812 19.464844 Z M 214.132812 0 " style=" stroke:none;fill-rule:nonzero;fill:rgb(13.72549%,12.156863%,12.54902%);fill-opacity:1;" />
<path d="M 107.066406 0 L 146 0 L 146 19.464844 L 107.066406 19.464844 Z M 107.066406 0 " style=" stroke:none;fill-rule:nonzero;fill:rgb(13.72549%,12.156863%,12.54902%);fill-opacity:1;" />
<path d="M 77.867188 19.464844 L 87.597656 19.464844 L 87.597656 0 L 68.132812 0 C 62.757812 0 58.398438 4.355469 58.398438 9.734375 L 58.398438 29.199219 L 77.867188 29.199219 Z M 77.867188 19.464844 " style=" stroke:none;fill-rule:nonzero;fill:rgb(13.72549%,12.156863%,12.54902%);fill-opacity:1;" />
<path d="M 58.398438 184.933594 L 77.867188 184.933594 L 77.867188 223.867188 L 58.398438 223.867188 Z M 58.398438 184.933594 " style=" stroke:none;fill-rule:nonzero;fill:rgb(13.72549%,12.156863%,12.54902%);fill-opacity:1;" />
<path d="M 58.398438 48.667969 L 77.867188 48.667969 L 77.867188 87.601562 L 58.398438 87.601562 Z M 58.398438 48.667969 " style=" stroke:none;fill-rule:nonzero;fill:rgb(13.72549%,12.156863%,12.54902%);fill-opacity:1;" />
<path d="M 58.398438 116.800781 L 77.867188 116.800781 L 77.867188 155.734375 L 58.398438 155.734375 Z M 58.398438 116.800781 " style=" stroke:none;fill-rule:nonzero;fill:rgb(13.72549%,12.156863%,12.54902%);fill-opacity:1;" />
<path d="M 58.398438 243.332031 L 77.867188 243.332031 L 77.867188 262.800781 L 58.398438 262.800781 Z M 58.398438 243.332031 " style=" stroke:none;fill-rule:nonzero;fill:rgb(13.72549%,12.156863%,12.54902%);fill-opacity:1;" />
</g>
</svg>